HIERARCHY
ROOT Hips
{
	OFFSET 0 0 0
	CHANNELS 6 Xposition Yposition Zposition Yrotation Xrotation Zrotation
	JOINT Spine
	{
		OFFSET -0 8.49848 -2.70889
		CHANNELS 3 Yrotation Xrotation Zrotation
		JOINT Spine1
		{
			OFFSET -0 9.87358 0
			CHANNELS 3 Yrotation Xrotation Zrotation
			JOINT Spine2
			{
				OFFSET -0 9.87358 0
				CHANNELS 3 Yrotation Xrotation Zrotation
				JOINT Spine3
				{
					OFFSET -0 9.87358 0
					CHANNELS 3 Yrotation Xrotation Zrotation
					JOINT Neck
					{
						OFFSET -0 15.0924 3.70889
						CHANNELS 3 Yrotation Xrotation Zrotation
						JOINT Head
						{
							OFFSET -0 10.6231 0
							CHANNELS 3 Yrotation Xrotation Zrotation
							End Site
							{
								OFFSET 0 15 0
							}
						}
					}
					JOINT LeftShoulder
					{
						OFFSET 1.77052 5.74391 3.54103
						CHANNELS 3 Yrotation Xrotation Zrotation
						JOINT LeftArm
						{
							OFFSET 16.6103 0 0
							CHANNELS 3 Yrotation Xrotation Zrotation
							JOINT LeftForeArm
							{
								OFFSET 23.9031 0 0
								CHANNELS 3 Yrotation Xrotation Zrotation
								JOINT LeftHand
								{
									OFFSET 22.9034 0 0
									CHANNELS 3 Yrotation Xrotation Zrotation
									End Site
									{
										OFFSET 15 0 0
									}
								}
							}
						}
					}
					JOINT RightShoulder
					{
						OFFSET -1.77052 5.74391 3.54103
						CHANNELS 3 Yrotation Xrotation Zrotation
						JOINT RightArm
						{
							OFFSET -16.6103 0 0
							CHANNELS 3 Yrotation Xrotation Zrotation
							JOINT RightForeArm
							{
								OFFSET -23.9031 0 0
								CHANNELS 3 Yrotation Xrotation Zrotation
								JOINT RightHand
								{
									OFFSET -22.9034 0 0
									CHANNELS 3 Yrotation Xrotation Zrotation
									End Site
									{
										OFFSET -15 0 0
									}
								}
							}
						}
					}
				}
			}
		}
	}
	JOINT LeftUpLeg
	{
		OFFSET 10.6231 -3.54103 2
		CHANNELS 3 Yrotation Xrotation Zrotation
		JOINT LeftLeg
		{
			OFFSET -0 -40.1531 2.47872
			CHANNELS 3 Yrotation Xrotation Zrotation
			JOINT LeftFoot
			{
				OFFSET -0 -42.693 -2.47872
				CHANNELS 3 Yrotation Xrotation Zrotation
				JOINT LeftToeBase
				{
					OFFSET -0 -6.83596 15.9346
					CHANNELS 3 Yrotation Xrotation Zrotation
					End Site
					{
						OFFSET 0 0 5
					}
				}
			}
		}
	}
	JOINT RightUpLeg
	{
		OFFSET -10.6231 -3.54103 2
		CHANNELS 3 Yrotation Xrotation Zrotation
		JOINT RightLeg
		{
			OFFSET -0 -40.1531 2.47872
			CHANNELS 3 Yrotation Xrotation Zrotation
			JOINT RightFoot
			{
				OFFSET -0 -42.693 -2.47872
				CHANNELS 3 Yrotation Xrotation Zrotation
				JOINT RightToeBase
				{
					OFFSET -0 -6.83596 15.9346
					CHANNELS 3 Yrotation Xrotation Zrotation
					End Site
					{
						OFFSET 0 0 5
					}
				}
			}
		}
	}
}
MOTION
Frames: 11
Frame Time: 0.00833333
-99.302917 91.829657 83.646295 -9.955537 -3.714808 1.215088 -4.667347 3.654626 -3.875520 -5.405479 3.861121 -2.160678 -3.149609 3.416786 -0.330516 -2.238557 3.631032 0.695804 15.678287 -4.750283 5.953542 6.572285 5.475110 -8.813808 8.596301 6.740791 -11.405023 -49.619268 -20.319187 -50.697817 -19.812128 -7.187259 -3.760211 -2.806459 -11.209025 -17.828066 -9.953343 -0.229903 3.670331 6.924342 0.903748 77.320768 27.817144 4.694516 4.767636 -2.429323 -23.227704 24.447058 26.182570 -3.621514 14.967906 0.000000 12.832037 0.000000 8.420423 3.094115 -12.596293 0.000000 -7.217702 0.000000 -3.373076 -4.015796 -17.661488 0.000000 6.568026 0.000000 3.905559 6.962836 14.849905 0.000000 -5.923392 0.000000
-99.277747 91.772192 83.636749 -10.083500 -4.054160 1.148305 -4.641836 3.785293 -4.036188 -5.447932 3.988456 -2.156360 -3.091078 3.608157 -0.201009 -2.129550 3.671492 0.716074 15.719421 -4.363673 6.119181 6.561858 5.343192 -9.024167 8.284509 6.738957 -11.447701 -49.300512 -20.552367 -50.708079 -19.795678 -7.478357 -4.004731 -2.880016 -11.064823 -17.711551 -9.491475 0.563520 5.960920 10.889188 -1.657135 76.453672 17.604447 2.897280 0.979195 -3.803123 -24.209702 23.794061 25.959660 -3.424741 15.187793 0.000000 13.190222 0.000000 8.702537 2.868645 -12.701640 0.000000 -7.237982 0.000000 -3.243711 -3.813354 -17.623232 0.000000 6.814404 0.000000 3.950356 6.840014 14.822064 0.000000 -5.922748 0.000000
-99.232153 91.717834 83.654486 -10.281946 -4.408551 1.106985 -4.544976 3.937805 -4.220873 -5.423402 4.115457 -2.170801 -3.032341 3.700993 -0.046467 -1.896783 3.813770 1.083329 15.560210 -3.993849 5.666613 6.474510 5.267698 -8.715895 7.677163 6.715784 -11.719445 -48.826214 -20.622894 -50.955855 -20.227325 -7.775331 -4.067153 -2.736018 -10.868129 -17.531289 -8.843122 1.359167 7.868392 15.664804 -3.415182 75.036304 8.284811 0.559723 -1.662366 -4.136416 -23.913980 23.218416 25.803314 -3.136653 15.390822 0.000000 13.496333 0.000000 8.993798 2.634655 -12.854563 0.000000 -7.258251 0.000000 -3.136441 -3.575208 -17.621687 0.000000 6.984179 0.000000 4.067280 6.730525 14.809709 0.000000 -5.873659 0.000000
-99.158997 91.648126 83.636212 -10.530695 -4.688399 1.058419 -4.542586 4.108683 -4.571575 -5.440049 4.145406 -1.930627 -2.804392 3.863633 0.521230 -1.412286 3.806123 1.011675 15.264906 -3.545392 5.206968 6.330185 5.128019 -8.596673 6.780648 6.714355 -11.851986 -48.248338 -20.771997 -51.197894 -20.679321 -7.914000 -4.393787 -2.710256 -10.570249 -17.333244 -7.829044 1.745535 9.059445 21.078347 -3.567142 74.193370 0.680937 -3.056470 -3.551376 -5.746872 -22.432436 25.244070 25.758221 -3.026528 15.555503 0.000000 13.938543 0.000000 9.215099 2.335013 -12.932413 0.000000 -7.302767 0.000000 -3.273866 -3.567442 -17.614477 0.000000 7.194731 0.000000 4.493465 6.644508 14.834090 0.000000 -5.826344 0.000000
-99.050098 91.573615 83.631866 -10.844025 -4.926290 1.071373 -4.315435 4.177283 -4.566259 -5.225058 4.355478 -1.708123 -2.564735 4.000741 0.739730 -1.121377 3.761581 0.722861 14.892663 -3.710476 5.013571 6.148597 5.490496 -8.639461 5.992621 6.486895 -11.600664 -47.863902 -20.964530 -51.517390 -21.055741 -8.074055 -4.744043 -2.869093 -9.974888 -17.423504 -6.551545 1.632865 9.981301 31.217657 3.838380 74.952219 4.329361 -6.597974 -5.666507 -11.952446 -25.512630 27.271837 25.742632 -2.890550 15.638046 0.000000 14.383049 0.000000 9.451956 2.016463 -13.076320 0.000000 -7.359164 0.000000 -3.397906 -3.662486 -17.701202 0.000000 7.457235 0.000000 5.054369 6.602677 14.951074 0.000000 -5.940202 0.000000
-98.973834 91.493042 83.645648 -11.126573 -5.206994 0.972437 -4.221760 4.365341 -4.732292 -5.073354 4.511481 -1.458236 -2.149948 4.151561 1.216217 -0.550761 3.712703 0.823322 14.392929 -3.852474 4.653383 5.932372 5.676304 -9.163813 5.384393 6.290326 -11.637726 -48.472178 -20.931564 -51.647531 -21.451947 -8.477808 -4.997217 -2.909469 -9.278840 -17.249738 -5.120021 0.797252 9.370195 33.558718 6.843469 76.870551 4.482809 -9.294733 -6.055521 -13.784152 -20.907829 28.659571 25.888463 -2.892631 15.880656 0.000000 14.957401 0.000000 9.478189 1.651618 -13.132743 0.000000 -7.438110 0.000000 -3.317696 -3.629388 -17.650340 0.000000 7.762000 0.000000 5.327324 6.474572 14.952677 0.000000 -5.903822 0.000000
-98.867499 91.399213 83.650153 -11.463847 -5.558254 0.936261 -3.835930 4.607962 -4.497024 -4.674449 4.759121 -1.347312 -1.913339 4.176020 1.197268 -0.270481 3.722097 0.987822 13.934333 -4.207234 4.469530 5.739334 5.967056 -9.606848 4.941478 6.242731 -11.246251 -49.244169 -21.181790 -51.600208 -21.992296 -8.726699 -5.426543 -3.070658 -8.720161 -16.882498 -4.173970 0.648273 8.471749 35.482303 8.383603 78.620820 4.458120 -9.425768 -5.477094 -13.483278 -17.509103 29.257041 25.826389 -2.737779 16.058446 0.000000 15.566024 0.000000 9.785932 1.244925 -13.247872 0.000000 -7.468317 0.000000 -3.210803 -3.585758 -17.680235 0.000000 8.127929 0.000000 5.612625 6.319927 15.008271 0.000000 -5.813375 0.000000
-98.763190 91.303802 83.655981 -11.728735 -5.839798 0.878300 -3.689082 4.887351 -4.296738 -4.402243 4.898006 -1.129610 -1.613794 3.987157 1.381304 0.081094 3.971461 0.641884 13.736204 -4.413883 4.580119 5.713358 5.615277 -10.270636 4.882884 6.230296 -10.628971 -50.312607 -21.114541 -51.192381 -23.185087 -8.443633 -5.934663 -3.194881 -8.825806 -16.351779 -4.034210 1.230633 7.438281 37.304565 8.491505 79.943159 4.317456 -7.017106 -4.672866 -11.688061 -16.487877 29.834872 25.599188 -2.719651 16.200453 0.000000 16.314908 0.000000 10.190424 0.836769 -13.332472 0.000000 -7.486791 0.000000 -3.187430 -3.628746 -17.695281 0.000000 8.518743 0.000000 5.956455 6.191020 15.090069 0.000000 -5.839335 0.000000
-98.612561 91.209973 83.626923 -11.991508 -6.075993 0.860143 -3.272482 5.171294 -3.888674 -3.944674 5.003651 -1.083932 -1.419540 4.096343 1.149782 0.131374 3.971754 0.770977 13.379044 -4.680273 4.538931 5.655833 5.100299 -10.536037 5.149263 6.065996 -9.996631 -51.840951 -21.024553 -50.909772 -24.415682 -8.548284 -6.052822 -3.132378 -8.757276 -16.466148 -4.215454 2.177323 6.514915 37.625275 8.791969 80.655937 6.495244 -3.411606 -4.151767 -10.974351 -14.944893 29.991454 25.379442 -2.789957 16.238738 0.000000 17.141817 0.000000 10.591762 0.428913 -13.358490 0.000000 -7.553549 0.000000 -2.980844 -3.687940 -17.769463 0.000000 8.892394 0.000000 6.134813 6.117634 15.156347 0.000000 -5.821971 0.000000
-98.471240 91.123450 83.617896 -12.235606 -6.269988 0.857074 -2.684122 5.470905 -3.437769 -3.348093 5.080709 -0.993033 -1.341860 4.102858 0.898882 0.061339 3.960083 0.635515 13.003268 -5.048387 4.980624 5.581360 4.720680 -10.978698 5.417631 6.173162 -9.149267 -52.985194 -21.248089 -50.567131 -26.042824 -8.170189 -6.274853 -3.135581 -9.566726 -16.155499 -4.726289 3.178490 5.893151 35.948853 9.023987 80.999973 9.409085 1.777340 -3.409014 -10.233576 -14.566495 30.523635 25.162440 -2.858807 16.243888 0.000000 17.913248 0.000000 10.992760 0.034109 -13.326214 0.000000 -7.535229 0.000000 -2.837557 -3.797574 -17.854296 0.000000 9.277910 0.000000 6.335610 6.025509 15.178725 0.000000 -5.847192 0.000000
-98.333984 91.044470 83.603571 -12.250833 -6.381338 0.788878 -2.217569 5.499271 -2.863307 -2.915498 5.288672 -0.998886 -1.173388 4.144042 0.476709 -0.166000 3.975378 0.528932 12.697822 -5.293862 5.570740 5.540093 4.256884 -11.286477 5.718538 6.277622 -8.213154 -53.837340 -21.419042 -50.053286 -28.024668 -8.100357 -6.623377 -3.213567 -10.365914 -16.008820 -5.155323 4.207305 5.514709 33.708773 9.301135 80.908377 13.131233 6.072604 -1.710811 -10.012487 -12.808267 29.662854 24.470014 -3.039864 16.198102 0.000000 18.771850 0.000000 11.634437 -0.315696 -13.309517 0.000000 -7.578791 0.000000 -2.945518 -3.923616 -17.891143 0.000000 9.563701 0.000000 6.518772 5.935513 15.286938 0.000000 -5.733437 0.000000
